<?xml version="1.0" encoding="UTF-8"?>
<svg id="Capa_1" data-name="Capa 1" xmlns="http://www.w3.org/2000/svg" viewBox="0 0 33.6925 11.1423">
  <defs>
    <style>
      .cls-1 {
        fill: #625c74;
      }

      .cls-2 {
        fill: #9c2b69;
      }

      .cls-3 {
        fill: #352859;
      }

      .cls-4 {
        fill: #fefefe;
      }

      .cls-5 {
        fill: #a29eab;
      }
    </style>
  </defs>
  <path class="cls-1" d="M21.2117.0048c.0121.0039.012.0086,0,.0139-.5042.0371-1.0099.037-1.5141,0-.0121-.0039-.012-.0086,0-.0139h1.5141Z"/>
  <path class="cls-5" d="M22.5035.0048v.0139l-.0515.0226c-.4057-.0107-.8106-.012-1.2147-.0041l-.0256-.0185V.0048h1.2918Z"/>
  <path class="cls-5" d="M19.6976.0048v.0139c-.304.0445-.6261.0398-.9307,0V.0048h.9307Z"/>
  <path class="cls-2" d="M19.9476,10.9229c-.1364.0035-.2738-.0042-.4103-.0005-.7426.0203-1.492.0838-2.2341-.0151-.9738-.1297-1.5376-.7511-1.9142-1.612-.9717-2.5708-1.7003-5.2351-2.6504-7.8133-.1594-.4326-.3709-.842-.5419-1.269.7061-.0044,1.4127.0054,2.1189.0006.1444-.001.2939-.0239.4444-.0151,1.2428.0726,2.0799,1.3317,2.4236,2.4073.4352,1.3618.7925,2.7804,1.2013,4.1553.2474.8319.4829,1.7175.7706,2.5322.2021.5722.5339,1.0841.792,1.6298Z"/>
  <path class="cls-2" d="M8.3599,2.4228c1.6027-.0306,2.9053.9851,3.0725,2.6112.0414.4027.0631.9233-.4548.9882-.5054.0633-1.1075-.0516-1.621.0181-.4481.0206-.9027-.0235-1.3486-.0151-.2247.0042-.4536.0796-.5485.2984-.2843.6557.5948.9458,1.0979.8329.4135-.0928.5774-.3827.9337-.5103.2763-.0989.8674-.0987,1.1525-.0337.433.0987.4158.5752.2357.8931-.3517.6206-1.1103,1.0198-1.7914,1.152-2.4669.4787-4.2451-1.4618-3.7188-3.8806.3305-1.5187,1.458-2.3249,2.9907-2.3542Z"/>
  <path class="cls-2" d="M2.2003,3.5237c.0974.0961.3399.1349.4744.1435.4208.0271.8694-.024,1.2916.0003.6324.0363.6905.3862.6605.9507-.0226.4262-.1337.6424-.5904.6728-.4638.0309-.9689-.0352-1.4311-.0004-.354.0266-.522.1943-.5487.548-.0554.7345.0508,1.5389.0004,2.2756-.0176.2566-.1062.4603-.3695.5328-.2096.0577-.8716.0455-1.111.0291-.4143-.0284-.5526-.2176-.5765-.6173V.8852C.0278.4304.2.2928.6459.2678c1.3728.0559,2.8021-.0724,4.1684,0,.4398.0233.6411.1413.673.6042.0304.4407.0531,1.0033-.5086,1.0595-.7527.0753-1.5746-.033-2.3318.0157-.2197.0141-.4342.0586-.5277.2776-.094.2204-.0943.9678.0065,1.186.0146.0316.0507.0893.0745.1128Z"/>
  <path class="cls-3" d="M30.3073,2.3396c2.2157-.0865,3.7331,1.7622,3.3163,3.9225-.4006,2.0768-2.6212,3.1098-4.5313,2.2633-3.0747-1.3627-2.2151-6.0519,1.215-6.1858Z"/>
  <path class="cls-3" d="M23.6814,2.3396c1.1235-.0671,2.2183.3804,2.8285,1.3428.1408.2221.3537.5584.1122.7894-.1435.1372-.2932.1146-.472.1251-.3802.0225-.7994.0708-1.0974-.2083-.3182-.2981-.4761-.5022-.9487-.5786-1.6062-.2596-2.2367,1.7155-1.5034,2.8888.4878.7805,1.6405.8858,2.2996.2568.0638-.0609.1156-.1432.187-.2017.2981-.2442.7665-.2287,1.1321-.2008,1.0358.079.224,1.1253-.1594,1.4775-.9013.828-2.4156,1.0045-3.5239.5225-1.4354-.6243-2.0715-2.1798-1.792-3.6813.2732-1.4682,1.457-2.4437,2.9376-2.5322Z"/>
  <path class="cls-3" d="M13.794,5.6235l1.3743,4.1415c-.0011.0257-.0956.1403-.1185.1716-.2394.3273-.5197.7185-.7837,1.0207-.2194.2511-.3959.1651-.7017.1732-1.3557.0363-2.7239-.0255-4.084.0013l-.1451-.0494,4.4587-5.459Z"/>
  <path class="cls-3" d="M18.7669.0187c.3098-.0048.6208.0007.9307,0,.5045-.0012,1.0096-.001,1.5141,0,.3881.0008.9235-.0424,1.2918,0,.0337.0039.0636.0237.0972.0279l-.0067.0277-4.1952,5.4795c-.0161.0001-.0353-.0781-.0416-.0969-.175-.5323-.3084-1.0949-.4756-1.6337-.1781-.5739-.3823-1.14-.563-1.7129-.0361-.1145-.1508-.417-.1495-.5163.0016-.1129.0589-.185.1199-.2698.1333-.1853.304-.3845.4504-.563.1282-.1563.455-.5869.6012-.6759.1501-.0914.2599-.0641.4264-.0667Z"/>
  <path class="cls-4" d="M8.2344,3.9483c.366-.0464.7484.1114.7367.5305-.0169.6079-1.0429.687-1.174.1072-.0705-.3117.1146-.5968.4373-.6377Z"/>
  <path class="cls-4" d="M30.2935,3.7825c1.2296-.1036,1.8479.8368,1.7814,1.9733-.0661,1.1295-.994,1.8576-2.1087,1.5361-1.6436-.474-1.5258-3.3532.3273-3.5094Z"/>
</svg>