<?xml version="1.0" encoding="UTF-8"?>
<svg id="Capa_1" xmlns="http://www.w3.org/2000/svg" version="1.1" viewBox="0 0 35 24">
  <!-- Generator: Adobe Illustrator 29.2.0, SVG Export Plug-In . SVG Version: 2.1.0 Build 108)  -->
  <defs>
    <style>
      .st0 {
        fill: #36235a;
      }

      .st1, .st2 {
        fill-rule: evenodd;
      }

      .st1, .st2, .st3 {
        display: none;
      }

      .st2 {
        fill: #161616;
        isolation: isolate;
        opacity: 0;
      }

      .st3 {
        fill: #fefefe;
      }

      .st4 {
        fill: #b6276b;
      }
    </style>
  </defs>
  <path class="st1" d="M.5.3v7.3s-.1,2.3,2.1,4.2l12.4,11.9h6.5c0,0-1-12.9-1-12.9l-2.5-2.9L10.3.3H.5Z"/>
  <path class="st2" d="M8.7,17.8L13.8,3.8l4.3,4.3-9.4,9.8Z"/>
  <path class="st2" d="M9.1,17.2l6.2-12,2.8,2.8-9,9.2Z"/>
  <path class="st1" d="M8.8,17.7L25.6.3h8.9v7.3s-.2,2.4-1.4,3.7l-11.6,12.3h-6.5l-6.3-6Z"/>
  <g>
    <rect class="st3" x="3.3" y="-1.4" width="27.6" height="26.6"/>
    <path class="st4" d="M25,22.6c-.6,0-1.3,0-1.9,0-1.1,0-2.2,0-3.3,0-2.2-.3-3.2-1.8-4-3.7-1.8-4.9-3.2-10-5-14.9s-.8-1.7-1.1-2.6c1.5,0,3,0,4.4,0s2.2.2,3.3,1.2,1.9,2.6,2.3,4.2c.8,2.7,1.5,5.4,2.3,8.1s1,3.8,1.7,5.4.9,1.6,1.2,2.3,0,0,0,.1Z"/>
    <path class="st0" d="M12.8,12l2.7,8.2h0c-.6.8-1.1,1.7-1.8,2.4s-.3.3-.6.3H4.2c0,0-.2,0-.3-.1l8.8-10.8Z"/>
    <path class="st0" d="M22.7.9c2.5-.1,5,0,7.5,0h.1c0,0-8.3,11-8.3,11,0,0-.1-.3-.1-.3-.3-.9-.5-1.8-.8-2.7-.4-1.5-1-2.9-1.4-4.4s-.1-.6.2-1c.6-.8,1.3-1.5,1.9-2.3.3-.3.7-.2,1-.3Z"/>
  </g>
</svg>