<?xml version="1.0" encoding="UTF-8"?>
<svg id="Capa_1" xmlns="http://www.w3.org/2000/svg" version="1.1" viewBox="0 0 16 13.5">
  <!-- Generator: Adobe Illustrator 29.2.0, SVG Export Plug-In . SVG Version: 2.1.0 Build 108)  -->
  <defs>
    <style>
      .st0 {
        fill: #36235a;
      }

      .st1, .st2, .st3 {
        display: none;
      }

      .st1, .st3 {
        fill-rule: evenodd;
      }

      .st2 {
        fill: #fefefe;
      }

      .st3 {
        fill: #161616;
        isolation: isolate;
        opacity: 0;
      }

      .st4 {
        fill: #b6276b;
      }
    </style>
  </defs>
  <path class="st1" d="M-1.6-.4V3.8s0,1.3,1.2,2.4l7.2,6.9h3.8l-.6-7.5-1.5-1.7L4.1-.4H-1.6Z"/>
  <path class="st3" d="M3.2,9.8L6.1,1.6l2.5,2.5-5.5,5.7h0Z"/>
  <path class="st3" d="M3.4,9.4l3.6-7,1.6,1.6s-5.2,5.3-5.2,5.3Z"/>
  <path class="st1" d="M3.2,9.7L13-.4h5.2V3.8s-.1,1.4-.8,2.1l-6.7,7.1h-3.8l-3.7-3.5h0Z"/>
  <g>
    <rect class="st2" y="-1" width="16" height="15.4"/>
    <path class="st4" d="M12.6,12.9h-3c-1.3-.2-1.9-1-2.3-2.1-1-2.8-1.9-5.8-2.9-8.6s-.5-1-.6-1.5h2.6c.8,0,1.3.1,1.9.7.6.6,1.1,1.5,1.3,2.4.5,1.6.9,3.1,1.3,4.7s.6,2.2,1,3.1.5.9.7,1.3,0,0,0,0h0Z"/>
    <path class="st0" d="M5.5,6.8l1.6,4.8h0c-.3.5-.6,1-1,1.4s-.2.2-.3.2H.5s-.1,0-.2,0l5.1-6.3s0,0,0,0Z"/>
    <path class="st0" d="M11.3.3c1.5,0,2.9,0,4.4,0h0l-4.8,6.4v-.2c-.2-.5-.3-1-.5-1.6-.2-.9-.6-1.7-.8-2.6s0-.3.1-.6c.3-.5.8-.9,1.1-1.3.2-.2.4-.1.6-.2,0,0,0,0,0,0Z"/>
  </g>
</svg>